<svg width="1440" height="1110" viewBox="0 0 1440 1110" fill="none" xmlns="http://www.w3.org/2000/svg">
<g clip-path="url(#clip0)">
<path d="M1421.76 561.162C1443.75 658.359 1445.31 759.066 1426.36 856.901C1407.41 954.736 1368.36 1047.56 1311.68 1129.5C1254.99 1211.44 1181.91 1280.71 1097.08 1332.91C1012.24 1385.1 917.486 1419.1 818.829 1432.73C720.172 1446.37 619.76 1439.35 523.957 1412.12C428.153 1384.88 339.048 1338.04 262.288 1274.54C185.529 1211.04 122.788 1132.28 78.0434 1043.25C33.2988 954.22 7.52562 856.858 2.35742 757.337" stroke="#C9D8DC"/>
<path d="M147.155 994.512C106.402 909.28 85.138 816.033 84.9081 721.549C84.6783 627.064 105.489 533.715 145.827 448.285" stroke="#C9D8DC"/>
<path d="M1115.74 221.792C1198.36 287.411 1263.37 372.574 1304.9 469.603C1346.43 566.633 1363.17 672.479 1353.61 777.598" stroke="#C9D8DC"/>
<path d="M2.22123 759.118C3.44798 759.118 4.44246 758.123 4.44246 756.895C4.44246 755.668 3.44798 754.672 2.22123 754.672C0.994479 754.672 0 755.668 0 756.895C0 758.123 0.994479 759.118 2.22123 759.118Z" fill="#C9D8DC"/>
<path d="M146.157 449.732C147.384 449.732 148.378 448.736 148.378 447.509C148.378 446.281 147.384 445.286 146.157 445.286C144.93 445.286 143.936 446.281 143.936 447.509C143.936 448.736 144.93 449.732 146.157 449.732Z" fill="#C9D8DC"/>
<path d="M1116.39 223.916C1117.62 223.916 1118.61 222.921 1118.61 221.693C1118.61 220.466 1117.62 219.47 1116.39 219.47C1115.16 219.47 1114.17 220.466 1114.17 221.693C1114.17 222.921 1115.16 223.916 1116.39 223.916Z" fill="#C9D8DC"/>
<path d="M1422.03 564.419C1423.26 564.419 1424.25 563.423 1424.25 562.196C1424.25 560.968 1423.26 559.973 1422.03 559.973C1420.8 559.973 1419.81 560.968 1419.81 562.196C1419.81 563.423 1420.8 564.419 1422.03 564.419Z" fill="#C9D8DC"/>
</g>
<defs>
<clipPath id="clip0">
<rect width="1440" height="1110" fill="white"/>
</clipPath>
</defs>
</svg>
