<svg width="1440" height="727" viewBox="0 0 1440 727" fill="none" xmlns="http://www.w3.org/2000/svg">
<g clip-path="url(#clip0)">
<path d="M1421.76 299.816C1453.55 440.261 1442.44 587.014 1389.87 721.072" stroke="#C9D8DC"/>
<path d="M144.002 726.207C104.757 641.668 84.5836 549.533 84.9102 456.329C85.2367 363.125 106.055 271.134 145.891 186.871" stroke="#C9D8DC"/>
<path d="M1115.74 -39.345C1198.36 26.234 1263.37 111.344 1304.9 208.314C1346.43 305.284 1363.17 411.064 1353.61 516.119" stroke="#C9D8DC"/>
<path d="M52.2271 726.349C22.7983 653.013 5.65886 575.328 1.49805 496.418" stroke="#C9D8DC"/>
<path d="M146.157 188.454C147.384 188.454 148.378 187.46 148.378 186.233C148.378 185.006 147.384 184.012 146.157 184.012C144.93 184.012 143.936 185.006 143.936 186.233C143.936 187.46 144.93 188.454 146.157 188.454Z" fill="#C9D8DC"/>
<path d="M1422.03 303.07C1423.26 303.07 1424.25 302.076 1424.25 300.849C1424.25 299.622 1423.26 298.628 1422.03 298.628C1420.8 298.628 1419.81 299.622 1419.81 300.849C1419.81 302.076 1420.8 303.07 1422.03 303.07Z" fill="#C9D8DC"/>
</g>
<defs>
<clipPath id="clip0">
<rect width="1440" height="727" fill="white"/>
</clipPath>
</defs>
</svg>
