<svg width="1440" height="539" viewBox="0 0 1440 539" fill="none" xmlns="http://www.w3.org/2000/svg">
<g clip-path="url(#clip0)">
<path d="M1297.69 -285.904C1384.44 -169.06 1433.72 -28.6577 1439.02 116.772C1444.33 262.202 1405.41 405.822 1327.4 528.675" stroke="#C9D8DC"/>
<path d="M1149.04 -286.141C1226.88 -208.3 1282.08 -110.752 1308.74 -3.94385C1335.39 102.865 1332.49 214.912 1300.35 320.199" stroke="#C9D8DC"/>
<path d="M143.307 332.387C108.274 225.73 103.511 111.446 129.548 2.24353C155.585 -106.958 211.401 -206.799 290.789 -286.174" stroke="#C9D8DC"/>
<path d="M121.875 538.75C122.911 538.75 123.75 537.911 123.75 536.875C123.75 535.839 122.911 535 121.875 535C120.839 535 120 535.839 120 536.875C120 537.911 120.839 538.75 121.875 538.75Z" fill="#C9D8DC"/>
<path d="M1327.12 531.5C1328.16 531.5 1329 530.661 1329 529.625C1329 528.589 1328.16 527.75 1327.12 527.75C1326.08 527.75 1325.25 528.589 1325.25 529.625C1325.25 530.661 1326.08 531.5 1327.12 531.5Z" fill="#C9D8DC"/>
<path d="M1300.12 323C1301.16 323 1302 322.161 1302 321.125C1302 320.089 1301.16 319.25 1300.12 319.25C1299.08 319.25 1298.25 320.089 1298.25 321.125C1298.25 322.161 1299.08 323 1300.12 323Z" fill="#C9D8DC"/>
<path d="M143.625 335C144.661 335 145.5 334.161 145.5 333.125C145.5 332.089 144.661 331.25 143.625 331.25C142.589 331.25 141.75 332.089 141.75 333.125C141.75 334.161 142.589 335 143.625 335Z" fill="#C9D8DC"/>
<path d="M122.008 537.107C40.0934 414.679 -2.27005 270.059 0.640527 122.783C3.5511 -24.4919 51.5955 -167.326 138.283 -286.421" stroke="#C9D8DC"/>
</g>
<defs>
<clipPath id="clip0">
<rect width="1440" height="539" fill="white"/>
</clipPath>
</defs>
</svg>
