<svg width="41" height="40" viewBox="0 0 41 40" fill="none" xmlns="http://www.w3.org/2000/svg">
<path d="M39.0254 38.9252H2.13024V38.0416H39.0254V38.9252ZM39.0254 34.016H20.5778V33.1324H39.0254V34.016ZM10.0123 27.8796C7.84284 27.8796 5.63651 27.0941 4.05986 25.5379C2.52994 24.0283 1.6875 22.0917 1.6875 20.0863C1.6875 18.0809 2.52994 16.1442 4.05863 14.6334C7.13569 11.5971 12.5912 11.4768 15.5035 14.3843L26.3187 25.1758C28.8817 27.736 33.7236 27.5961 36.4735 24.8825C37.8325 23.5399 38.5827 21.8315 38.5827 20.0715C38.5827 18.3116 37.8337 16.6032 36.4735 15.2593C33.7273 12.547 28.8632 12.4292 26.2707 15.0151L23.3499 17.9299L22.7227 17.3052L25.6435 14.3904C28.5595 11.4793 34.0187 11.5934 37.0958 14.6309C38.6257 16.1417 39.4681 18.0735 39.4681 20.0715C39.4681 22.0696 38.6257 24.0013 37.0958 25.5109C34.02 28.5484 28.5841 28.6884 25.6927 25.8018L14.8787 15.009C12.2899 12.428 7.43085 12.5482 4.68216 15.2618C3.32196 16.6057 2.57298 18.319 2.57298 20.0863C2.57298 21.8536 3.32196 23.5669 4.68216 24.9095C7.42347 27.6133 12.2813 27.7225 14.8763 25.1353L17.0457 22.9704H13.1988V22.0868H18.5609V27.4377H17.6754V23.5902L15.501 25.7613C14.083 27.1763 12.0636 27.8783 10.0123 27.8796ZM20.5778 7.0156H2.13024V6.13195H20.5778V7.0156ZM39.0254 2.10643H2.13024V1.22278H39.0254V2.10643Z" fill="#F5F5F5"/>
</svg>
