<svg width="43" height="43" viewBox="0 0 43 43" fill="none" xmlns="http://www.w3.org/2000/svg">
<path d="M42.4626 42.9631H0.795898V41.9631H42.4626V42.9631ZM42.4626 37.4075H21.6292V36.4075H42.4626V37.4075ZM9.69729 30.4631C7.24729 30.4631 4.75562 29.5742 2.97507 27.8131C1.24729 26.1047 0.295898 23.9131 0.295898 21.6436C0.295898 19.3742 1.24729 17.1825 2.97368 15.4728C6.44868 12.0367 12.6098 11.9006 15.8987 15.1908L28.1126 27.4033C31.007 30.3006 36.4751 30.1422 39.5806 27.0714C41.1153 25.5519 41.9626 23.6186 41.9626 21.6269C41.9626 19.6353 41.1167 17.7019 39.5806 16.1811C36.4792 13.1117 30.9862 12.9783 28.0584 15.9047L24.7598 19.2033L24.0515 18.4964L27.3501 15.1978C30.6431 11.9033 36.8084 12.0325 40.2834 15.47C42.0112 17.1797 42.9626 19.3658 42.9626 21.6269C42.9626 23.8881 42.0112 26.0742 40.2834 27.7825C36.8098 31.22 30.6709 31.3783 27.4056 28.1117L15.1931 15.8978C12.2695 12.9769 6.78201 13.1131 3.67784 16.1839C2.14173 17.7047 1.2959 19.6436 1.2959 21.6436C1.2959 23.6436 2.14173 25.5825 3.67784 27.1019C6.77368 30.1617 12.2598 30.2853 15.1903 27.3575L17.6403 24.9075H13.2959V23.9075H19.3515V29.9631H18.3515V25.6089L15.8959 28.0658C14.2945 29.6672 12.014 30.4617 9.69729 30.4631ZM21.6292 6.85194H0.795898V5.85194H21.6292V6.85194ZM42.4626 1.29639H0.795898V0.296387H42.4626V1.29639Z" fill="#F5F5F5"/>
</svg>
