<svg width="40" height="40" viewBox="0 0 40 40" fill="none" xmlns="http://www.w3.org/2000/svg">
<g clip-path="url(#clip0)">
<path d="M27.5213 38.7892C21.3217 38.7892 16.2523 33.8727 16.0186 27.7436H11.5334C11.2887 27.7436 11.0907 27.546 11.0907 27.3018V11.347C11.0907 11.1027 11.2887 10.9051 11.5334 10.9051H17.6826C17.8007 10.9051 17.9126 10.9518 17.995 11.034C18.0786 11.1175 18.1253 11.2291 18.1253 11.347V20.6683C18.8878 19.587 19.8385 18.642 20.9294 17.8872V1.5274C20.9294 1.28317 21.1274 1.08557 21.3721 1.08557H27.5213C27.6394 1.08557 27.7525 1.13221 27.8349 1.21444C27.9173 1.29912 27.9641 1.41203 27.9641 1.52862L27.9628 15.8229C34.1059 16.0549 39.0326 21.115 39.0326 27.3018C39.0326 33.6358 33.8685 38.7892 27.5213 38.7892ZM27.5213 16.698C25.4072 16.698 23.3669 17.3165 21.6181 18.4886C20.1177 19.4802 18.894 20.8523 18.0774 22.4589C17.3038 23.9427 16.8955 25.6167 16.8955 27.3018C16.8955 33.1486 21.6624 37.9056 27.5213 37.9056C33.3803 37.9056 38.1471 33.1486 38.1471 27.3018C38.1471 21.4549 33.3803 16.698 27.5213 16.698ZM11.9761 26.8599H16.0186C16.0826 25.2215 16.5007 23.6052 17.2399 22.1533V11.7888H11.9761V26.8599ZM21.8149 1.97045L21.8136 17.3276C21.9182 17.2687 22.0227 17.2097 22.1297 17.1533C22.886 16.7507 23.683 16.4365 24.507 16.2132C25.342 15.9874 26.2029 15.856 27.0773 15.8229L27.0786 1.97045H21.8149ZM27.9641 33.4382H27.0786V31.4255H23.8318V30.5418H29.3661C30.1396 30.5418 30.7681 29.9147 30.7681 29.1427C30.7681 28.3707 30.1396 27.7436 29.3661 27.7436H25.6753C24.4147 27.7436 23.389 26.7188 23.389 25.4608C23.389 24.2029 24.4147 23.1781 25.6753 23.1781H27.0786V21.1653H27.9653V23.1781H31.2108V24.0629H25.6753C24.903 24.0629 24.2745 24.6901 24.2745 25.4621C24.2745 26.234 24.903 26.8612 25.6753 26.8612H29.3661C30.6267 26.8612 31.6536 27.886 31.6536 29.1439C31.6536 30.4019 30.6267 31.4267 29.3661 31.4267H27.9641V33.4382ZM7.84389 27.7436H1.6947C1.44996 27.7436 1.25195 27.546 1.25195 27.3018V18.7107C1.25195 18.4665 1.44996 18.2689 1.6947 18.2689H7.84389C8.08863 18.2689 8.28663 18.4665 8.28663 18.7107V27.3018C8.28663 27.546 8.08863 27.7436 7.84389 27.7436ZM2.13744 26.8599H7.40115V19.1525H2.13744V26.8599Z" fill="#F5F5F5"/>
</g>
<defs>
<clipPath id="clip0">
<rect width="39.3548" height="39.2734" fill="white" transform="translate(0.464844 0.301025)"/>
</clipPath>
</defs>
</svg>
