<svg width="43" height="43" viewBox="0 0 43 43" fill="none" xmlns="http://www.w3.org/2000/svg">
<path d="M29.9626 42.963C22.9612 42.963 17.2362 37.3991 16.9723 30.463H11.907C11.6306 30.463 11.407 30.2394 11.407 29.963V11.9074C11.407 11.631 11.6306 11.4074 11.907 11.4074H18.8515C18.9848 11.4074 19.1112 11.4602 19.2042 11.5533C19.2987 11.6477 19.3515 11.7741 19.3515 11.9074V22.456C20.2126 21.2324 21.2862 20.163 22.5181 19.3088V0.794922C22.5181 0.518533 22.7417 0.294922 23.0181 0.294922H29.9626C30.0959 0.294922 30.2237 0.3477 30.3167 0.440755C30.4098 0.536589 30.4626 0.664366 30.4626 0.796311L30.4612 16.9727C37.3987 17.2352 42.9626 22.9616 42.9626 29.963C42.9626 37.131 37.1306 42.963 29.9626 42.963ZM29.9626 17.963C27.5751 17.963 25.2709 18.663 23.2959 19.9894C21.6015 21.1116 20.2195 22.6644 19.2973 24.4824C18.4237 26.1616 17.9626 28.056 17.9626 29.963C17.9626 36.5796 23.3459 41.963 29.9626 41.963C36.5792 41.963 41.9626 36.5796 41.9626 29.963C41.9626 23.3463 36.5792 17.963 29.9626 17.963ZM12.407 29.463H16.9723C17.0445 27.6088 17.5167 25.7796 18.3515 24.1366V12.4074H12.407V29.463ZM23.5181 1.29631L23.5167 18.6755C23.6348 18.6088 23.7528 18.5421 23.8737 18.4783C24.7278 18.0227 25.6278 17.6671 26.5584 17.4144C27.5015 17.1588 28.4737 17.0102 29.4612 16.9727L29.4626 1.29631H23.5181ZM30.4626 36.9074H29.4626V34.6296H25.7959V33.6296H32.0459C32.9195 33.6296 33.6292 32.9199 33.6292 32.0463C33.6292 31.1727 32.9195 30.463 32.0459 30.463H27.8778C26.4542 30.463 25.2959 29.3033 25.2959 27.8796C25.2959 26.456 26.4542 25.2963 27.8778 25.2963H29.4626V23.0185H30.464V25.2963H34.1292V26.2977H27.8778C27.0056 26.2977 26.2959 27.0074 26.2959 27.881C26.2959 28.7546 27.0056 29.4644 27.8778 29.4644H32.0459C33.4695 29.4644 34.6292 30.6241 34.6292 32.0477C34.6292 33.4713 33.4695 34.631 32.0459 34.631H30.4626V36.9074ZM7.74034 30.463H0.795898C0.51951 30.463 0.295898 30.2394 0.295898 29.963V20.2408C0.295898 19.9644 0.51951 19.7408 0.795898 19.7408H7.74034C8.01673 19.7408 8.24034 19.9644 8.24034 20.2408V29.963C8.24034 30.2394 8.01673 30.463 7.74034 30.463ZM1.2959 29.463H7.24034V20.7408H1.2959V29.463Z" fill="#F5F5F5"/>
</svg>
