<svg width="41" height="40" viewBox="0 0 41 40" fill="none" xmlns="http://www.w3.org/2000/svg">
<path d="M35.2529 18.6749C36.5135 18.6749 37.5404 17.6513 37.5404 16.3921C37.5404 15.1329 36.5135 14.1093 35.2529 14.1093C33.9923 14.1093 32.9654 15.1329 32.9654 16.3921C32.9654 17.6513 33.9923 18.6749 35.2529 18.6749ZM35.2529 14.993C36.0264 14.993 36.6549 15.6214 36.6549 16.3921C36.6549 17.1629 36.0264 17.7912 35.2529 17.7912C34.4793 17.7912 33.8509 17.1629 33.8509 16.3921C33.8509 15.6214 34.4793 14.993 35.2529 14.993ZM39.3851 23.7559V28.665C39.3851 29.6874 39.3851 31.3516 38.1553 32.018V38.4834H37.2698V31.7333C37.2698 31.5479 37.3879 31.381 37.5625 31.3172C38.4271 31.0067 38.4997 29.8371 38.4997 28.665V23.7559C38.4997 21.9088 37.1038 20.5158 35.2529 20.5158C33.402 20.5158 32.0061 21.9088 32.0061 23.7559V28.665C32.0061 29.8371 32.0787 31.0067 32.9432 31.3172C33.1191 31.381 33.2359 31.5479 33.2359 31.7333V38.4834H32.3505V32.018C31.1206 31.3516 31.1206 29.6874 31.1206 28.665V23.7559C31.1206 21.4436 32.9371 19.6322 35.2529 19.6322C37.5687 19.6322 39.3851 21.4436 39.3851 23.7559ZM5.73675 18.6749C6.99733 18.6749 8.02425 17.6513 8.02425 16.3921C8.02425 15.1329 6.99733 14.1093 5.73675 14.1093C4.47617 14.1093 3.44925 15.1341 3.44925 16.3921C3.44925 17.6501 4.47617 18.6749 5.73675 18.6749ZM5.73675 14.993C6.50909 14.993 7.13877 15.6214 7.13877 16.3921C7.13877 17.1629 6.50909 17.7912 5.73675 17.7912C4.96441 17.7912 4.33473 17.1629 4.33473 16.3921C4.33473 15.6214 4.96441 14.993 5.73675 14.993ZM9.86901 23.7559V28.665C9.86901 29.6199 9.86901 31.343 8.63917 32.0168V38.4834H7.75369V31.7333C7.75369 31.5479 7.87052 31.381 8.04639 31.3172C8.91096 31.0067 8.98352 29.8359 8.98352 28.665V23.7559C8.98352 21.9088 7.58766 20.5158 5.73675 20.5158C3.88584 20.5158 2.48998 21.9088 2.48998 23.7559V28.665C2.48998 29.8359 2.56254 31.0067 3.42711 31.3172C3.60298 31.381 3.71981 31.5479 3.71981 31.7333V38.4834H2.83433V32.0168C1.60449 31.3418 1.60449 29.6199 1.60449 28.665V23.7559C1.60449 21.4436 3.41973 19.6322 5.73675 19.6322C8.05377 19.6322 9.86901 21.4436 9.86901 23.7559ZM20.4948 8.24289C22.4343 8.24289 24.0122 6.66827 24.0122 4.73283C24.0122 2.79739 22.433 1.22278 20.4948 1.22278C18.5554 1.22278 16.9775 2.79739 16.9775 4.73283C16.9775 6.66827 18.5541 8.24289 20.4948 8.24289ZM20.4948 2.10643C21.946 2.10643 23.1254 3.28463 23.1254 4.73283C23.1254 6.18104 21.946 7.35924 20.4948 7.35924C19.0436 7.35924 17.863 6.18104 17.863 4.73283C17.863 3.28463 19.0424 2.10643 20.4948 2.10643ZM26.644 34.3597H23.3972V25.2826C24.9222 24.6015 25.8569 23.1054 25.8569 21.3025V15.166C25.8569 12.0659 23.6014 9.81505 20.4936 9.81505C17.387 9.81505 15.1327 12.0647 15.1327 15.166V21.3025C15.1327 23.1054 16.0674 24.6015 17.5924 25.2826V34.3597H14.3456C14.1009 34.3597 13.9029 34.5573 13.9029 34.8015V38.4834H14.7884V35.2433H26.2013V38.4834H27.088V34.8015C27.0868 34.5573 26.8887 34.3597 26.644 34.3597ZM18.1864 24.5671C16.8483 24.086 16.0182 22.8342 16.0182 21.3013V15.1648C16.0182 12.5765 17.9011 10.6975 20.4948 10.6975C23.0898 10.6975 24.9714 12.5765 24.9714 15.1648V21.3013C24.9714 22.8342 24.1413 24.086 22.8045 24.5671C22.6286 24.6309 22.5118 24.7978 22.5118 24.9832V34.3597H18.4779V24.9832C18.4779 24.7978 18.361 24.6309 18.1864 24.5671Z" fill="#F5F5F5"/>
</svg>
