<svg width="43" height="43" viewBox="0 0 43 43" fill="none" xmlns="http://www.w3.org/2000/svg">
<path d="M38.0371 20.0464C39.4607 20.0464 40.6204 18.8881 40.6204 17.4631C40.6204 16.0381 39.4607 14.8797 38.0371 14.8797C36.6135 14.8797 35.4538 16.0381 35.4538 17.4631C35.4538 18.8881 36.6135 20.0464 38.0371 20.0464ZM38.0371 15.8797C38.9107 15.8797 39.6204 16.5908 39.6204 17.4631C39.6204 18.3353 38.9107 19.0464 38.0371 19.0464C37.1635 19.0464 36.4538 18.3353 36.4538 17.4631C36.4538 16.5908 37.1635 15.8797 38.0371 15.8797ZM42.7038 25.7964V31.3519C42.7038 32.5089 42.7038 34.3922 41.3149 35.1464V42.4631H40.3149V34.8242C40.3149 34.6144 40.4482 34.4256 40.6454 34.3533C41.6218 34.0019 41.7038 32.6783 41.7038 31.3519V25.7964C41.7038 23.7061 40.1274 22.1297 38.0371 22.1297C35.9468 22.1297 34.3704 23.7061 34.3704 25.7964V31.3519C34.3704 32.6783 34.4524 34.0019 35.4288 34.3533C35.6274 34.4256 35.7593 34.6144 35.7593 34.8242V42.4631H34.7593V35.1464C33.3704 34.3922 33.3704 32.5089 33.3704 31.3519V25.7964C33.3704 23.1797 35.4218 21.1297 38.0371 21.1297C40.6524 21.1297 42.7038 23.1797 42.7038 25.7964ZM4.70378 20.0464C6.12739 20.0464 7.28711 18.8881 7.28711 17.4631C7.28711 16.0381 6.12739 14.8797 4.70378 14.8797C3.28017 14.8797 2.12044 16.0394 2.12044 17.4631C2.12044 18.8867 3.28017 20.0464 4.70378 20.0464ZM4.70378 15.8797C5.576 15.8797 6.28711 16.5908 6.28711 17.4631C6.28711 18.3353 5.576 19.0464 4.70378 19.0464C3.83155 19.0464 3.12044 18.3353 3.12044 17.4631C3.12044 16.5908 3.83155 15.8797 4.70378 15.8797ZM9.37044 25.7964V31.3519C9.37044 32.4325 9.37044 34.3825 7.98155 35.145V42.4631H6.98155V34.8242C6.98155 34.6144 7.1135 34.4256 7.31211 34.3533C8.2885 34.0019 8.37044 32.6769 8.37044 31.3519V25.7964C8.37044 23.7061 6.79405 22.1297 4.70378 22.1297C2.6135 22.1297 1.03711 23.7061 1.03711 25.7964V31.3519C1.03711 32.6769 1.11905 34.0019 2.09544 34.3533C2.29405 34.4256 2.426 34.6144 2.426 34.8242V42.4631H1.426V35.145C0.0371094 34.3811 0.0371094 32.4325 0.0371094 31.3519V25.7964C0.0371094 23.1797 2.08711 21.1297 4.70378 21.1297C7.32044 21.1297 9.37044 23.1797 9.37044 25.7964ZM21.3704 8.24083C23.5607 8.24083 25.3427 6.45889 25.3427 4.26861C25.3427 2.07833 23.5593 0.296387 21.3704 0.296387C19.1802 0.296387 17.3982 2.07833 17.3982 4.26861C17.3982 6.45889 19.1788 8.24083 21.3704 8.24083ZM21.3704 1.29639C23.0093 1.29639 24.3413 2.62972 24.3413 4.26861C24.3413 5.9075 23.0093 7.24083 21.3704 7.24083C19.7316 7.24083 18.3982 5.9075 18.3982 4.26861C18.3982 2.62972 19.7302 1.29639 21.3704 1.29639ZM28.3149 37.7964H24.6482V27.5242C26.3704 26.7533 27.426 25.0603 27.426 23.02V16.0756C27.426 12.5672 24.8788 10.02 21.3691 10.02C17.8607 10.02 15.3149 12.5658 15.3149 16.0756V23.02C15.3149 25.0603 16.3704 26.7533 18.0927 27.5242V37.7964H14.426C14.1496 37.7964 13.926 38.02 13.926 38.2964V42.4631H14.926V38.7964H27.8149V42.4631H28.8163V38.2964C28.8149 38.02 28.5913 37.7964 28.3149 37.7964ZM18.7635 26.7144C17.2524 26.17 16.3149 24.7533 16.3149 23.0186V16.0742C16.3149 13.145 18.4413 11.0186 21.3704 11.0186C24.301 11.0186 26.426 13.145 26.426 16.0742V23.0186C26.426 24.7533 25.4885 26.17 23.9788 26.7144C23.7802 26.7867 23.6482 26.9756 23.6482 27.1853V37.7964H19.0927V27.1853C19.0927 26.9756 18.9607 26.7867 18.7635 26.7144Z" fill="#F5F5F5"/>
</svg>
