<svg width="41" height="41" viewBox="0 0 41 41" fill="none" xmlns="http://www.w3.org/2000/svg">
<path d="M35.9068 40.5742C33.5026 40.5742 31.5165 38.7464 31.2665 36.4075H25.2693C25.0193 38.7464 23.0346 40.5742 20.629 40.5742C18.0554 40.5742 15.9623 38.4798 15.9623 35.9075C15.9623 33.5034 17.7901 31.5173 20.129 31.2673V25.27C17.7901 25.02 15.9623 23.0353 15.9623 20.6297C15.9623 18.2256 17.7901 16.2395 20.129 15.9895V9.99225C17.954 9.7603 16.2221 8.02697 15.9887 5.85197H9.99152C9.74152 8.19086 7.7554 10.0186 5.35124 10.0186C2.77763 10.0186 0.68457 7.92558 0.68457 5.35197C0.68457 2.77836 2.77763 0.685303 5.35124 0.685303C7.7554 0.685303 9.74152 2.51308 9.99152 4.85197H15.9887C16.2387 2.51308 18.2248 0.685303 20.629 0.685303C23.2026 0.685303 25.2957 2.77836 25.2957 5.35197C25.2957 7.75614 23.4679 9.74225 21.129 9.99225V15.9895C23.4679 16.2395 25.2957 18.2256 25.2957 20.6297C25.2957 23.0339 23.4679 25.02 21.129 25.27V31.2673C23.304 31.4992 25.0373 33.2325 25.2693 35.4061H31.2665C31.5165 33.0672 33.5012 31.2395 35.9068 31.2395C38.4804 31.2395 40.5735 33.3339 40.5735 35.9061C40.5735 38.4784 38.4804 40.5742 35.9068 40.5742ZM35.9068 32.2409C33.8846 32.2409 32.2401 33.8853 32.2401 35.9075C32.2401 37.9297 33.8846 39.5742 35.9068 39.5742C37.929 39.5742 39.5735 37.9297 39.5735 35.9075C39.5735 33.8853 37.929 32.2409 35.9068 32.2409ZM20.629 32.2409C18.6068 32.2409 16.9623 33.8853 16.9623 35.9075C16.9623 37.9297 18.6082 39.5742 20.629 39.5742C22.6512 39.5742 24.2957 37.9297 24.2957 35.9075C24.2957 33.8853 22.6512 32.2409 20.629 32.2409ZM20.629 16.9631C18.6068 16.9631 16.9623 18.6089 16.9623 20.6297C16.9623 22.652 18.6082 24.2964 20.629 24.2964C22.6512 24.2964 24.2957 22.652 24.2957 20.6297C24.2957 18.6075 22.6512 16.9631 20.629 16.9631ZM20.629 1.6853C18.6068 1.6853 16.9623 3.33114 16.9623 5.35197C16.9623 7.3728 18.6068 9.01864 20.629 9.01864C22.6512 9.01864 24.2957 7.3728 24.2957 5.35197C24.2957 3.33114 22.6512 1.6853 20.629 1.6853ZM5.35124 1.6853C3.32902 1.6853 1.68457 3.32975 1.68457 5.35197C1.68457 7.37419 3.32902 9.01864 5.35124 9.01864C7.37346 9.01864 9.0179 7.37419 9.0179 5.35197C9.0179 3.32975 7.37346 1.6853 5.35124 1.6853ZM5.35124 40.5742C2.77763 40.5742 0.68457 38.4798 0.68457 35.9075C0.68457 33.3353 2.77763 31.2409 5.35124 31.2409C7.92485 31.2409 10.0179 33.3339 10.0179 35.9075C10.0179 38.4811 7.92485 40.5742 5.35124 40.5742ZM5.35124 32.2409C3.32902 32.2409 1.68457 33.8853 1.68457 35.9075C1.68457 37.9297 3.32902 39.5742 5.35124 39.5742C7.37346 39.5742 9.0179 37.9297 9.0179 35.9075C9.0179 33.8853 7.37346 32.2409 5.35124 32.2409ZM35.9068 25.2964C33.3332 25.2964 31.2401 23.202 31.2401 20.6297C31.2401 18.0575 33.3346 15.9631 35.9068 15.9631C38.479 15.9631 40.5735 18.0561 40.5735 20.6297C40.5735 23.2034 38.4804 25.2964 35.9068 25.2964ZM35.9068 16.9631C33.8846 16.9631 32.2401 18.6089 32.2401 20.6297C32.2401 22.652 33.8846 24.2964 35.9068 24.2964C37.929 24.2964 39.5735 22.652 39.5735 20.6297C39.5735 18.6075 37.929 16.9631 35.9068 16.9631ZM5.35124 25.2964C2.77763 25.2964 0.68457 23.202 0.68457 20.6297C0.68457 18.0575 2.77763 15.9631 5.35124 15.9631C7.92485 15.9631 10.0179 18.0561 10.0179 20.6297C10.0179 23.2034 7.92485 25.2964 5.35124 25.2964ZM5.35124 16.9631C3.32902 16.9631 1.68457 18.6089 1.68457 20.6297C1.68457 22.652 3.3304 24.2964 5.35124 24.2964C7.37207 24.2964 9.0179 22.652 9.0179 20.6297C9.0179 18.6075 7.37346 16.9631 5.35124 16.9631ZM35.9068 10.0186C33.3332 10.0186 31.2401 7.92558 31.2401 5.35197C31.2401 2.77836 33.3332 0.685303 35.9068 0.685303C38.4804 0.685303 40.5735 2.77836 40.5735 5.35197C40.5735 7.92558 38.4804 10.0186 35.9068 10.0186ZM35.9068 1.6853C33.8846 1.6853 32.2401 3.33114 32.2401 5.35197C32.2401 7.3728 33.8846 9.01864 35.9068 9.01864C37.929 9.01864 39.5735 7.37419 39.5735 5.35197C39.5735 3.32975 37.929 1.6853 35.9068 1.6853Z" fill="#F5F5F5"/>
</svg>
