<svg width="40" height="40" viewBox="0 0 40 40" fill="none" xmlns="http://www.w3.org/2000/svg">
<path d="M33.5881 37.5625C31.4593 37.5625 29.7006 35.9474 29.4792 33.8807H24.1688C23.9474 35.9474 22.19 37.5625 20.0599 37.5625C17.781 37.5625 15.9276 35.7118 15.9276 33.4388C15.9276 31.3144 17.5461 29.5594 19.6172 29.3385V24.039C17.5461 23.8181 15.9276 22.0643 15.9276 19.9386C15.9276 17.8142 17.5461 16.0591 19.6172 15.8382V10.5388C17.6912 10.3338 16.1576 8.80217 15.951 6.88023H10.6406C10.4192 8.94699 8.66052 10.5621 6.53167 10.5621C4.25278 10.5621 2.39941 8.71257 2.39941 6.4384C2.39941 4.16423 4.25278 2.3147 6.53167 2.3147C8.66052 2.3147 10.4192 3.92981 10.6406 5.99657H15.951C16.1724 3.92981 17.931 2.3147 20.0599 2.3147C22.3388 2.3147 24.1922 4.16423 24.1922 6.4384C24.1922 8.56284 22.5737 10.3179 20.5026 10.5388V15.8382C22.5737 16.0591 24.1922 17.8142 24.1922 19.9386C24.1922 22.0631 22.5737 23.8181 20.5026 24.039V29.3385C22.4286 29.5434 23.9634 31.0751 24.1688 32.9958H29.4792C29.7006 30.929 31.458 29.3139 33.5881 29.3139C35.867 29.3139 37.7204 31.1647 37.7204 33.4376C37.7204 35.7106 35.867 37.5625 33.5881 37.5625ZM33.5881 30.1988C31.7975 30.1988 30.3414 31.6519 30.3414 33.4388C30.3414 35.2258 31.7975 36.6789 33.5881 36.6789C35.3788 36.6789 36.8349 35.2258 36.8349 33.4388C36.8349 31.6519 35.3788 30.1988 33.5881 30.1988ZM20.0599 30.1988C18.2693 30.1988 16.8131 31.6519 16.8131 33.4388C16.8131 35.2258 18.2705 36.6789 20.0599 36.6789C21.8505 36.6789 23.3067 35.2258 23.3067 33.4388C23.3067 31.6519 21.8505 30.1988 20.0599 30.1988ZM20.0599 16.6986C18.2693 16.6986 16.8131 18.1529 16.8131 19.9386C16.8131 21.7256 18.2705 23.1787 20.0599 23.1787C21.8505 23.1787 23.3067 21.7256 23.3067 19.9386C23.3067 18.1517 21.8505 16.6986 20.0599 16.6986ZM20.0599 3.19835C18.2693 3.19835 16.8131 4.65269 16.8131 6.4384C16.8131 8.22411 18.2693 9.67845 20.0599 9.67845C21.8505 9.67845 23.3067 8.22411 23.3067 6.4384C23.3067 4.65269 21.8505 3.19835 20.0599 3.19835ZM6.53167 3.19835C4.74103 3.19835 3.2849 4.65146 3.2849 6.4384C3.2849 8.22534 4.74103 9.67845 6.53167 9.67845C8.32232 9.67845 9.77845 8.22534 9.77845 6.4384C9.77845 4.65146 8.32232 3.19835 6.53167 3.19835ZM6.53167 37.5625C4.25278 37.5625 2.39941 35.7118 2.39941 33.4388C2.39941 31.1659 4.25278 29.3151 6.53167 29.3151C8.81056 29.3151 10.6639 31.1647 10.6639 33.4388C10.6639 35.713 8.81056 37.5625 6.53167 37.5625ZM6.53167 30.1988C4.74103 30.1988 3.2849 31.6519 3.2849 33.4388C3.2849 35.2258 4.74103 36.6789 6.53167 36.6789C8.32232 36.6789 9.77845 35.2258 9.77845 33.4388C9.77845 31.6519 8.32232 30.1988 6.53167 30.1988ZM33.5881 24.0623C31.3092 24.0623 29.4559 22.2116 29.4559 19.9386C29.4559 17.6657 31.3105 15.8149 33.5881 15.8149C35.8658 15.8149 37.7204 17.6644 37.7204 19.9386C37.7204 22.2128 35.867 24.0623 33.5881 24.0623ZM33.5881 16.6986C31.7975 16.6986 30.3414 18.1529 30.3414 19.9386C30.3414 21.7256 31.7975 23.1787 33.5881 23.1787C35.3788 23.1787 36.8349 21.7256 36.8349 19.9386C36.8349 18.1517 35.3788 16.6986 33.5881 16.6986ZM6.53167 24.0623C4.25278 24.0623 2.39941 22.2116 2.39941 19.9386C2.39941 17.6657 4.25278 15.8149 6.53167 15.8149C8.81056 15.8149 10.6639 17.6644 10.6639 19.9386C10.6639 22.2128 8.81056 24.0623 6.53167 24.0623ZM6.53167 16.6986C4.74103 16.6986 3.2849 18.1529 3.2849 19.9386C3.2849 21.7256 4.74226 23.1787 6.53167 23.1787C8.32109 23.1787 9.77845 21.7256 9.77845 19.9386C9.77845 18.1517 8.32232 16.6986 6.53167 16.6986ZM33.5881 10.5621C31.3092 10.5621 29.4559 8.71257 29.4559 6.4384C29.4559 4.16423 31.3092 2.3147 33.5881 2.3147C35.867 2.3147 37.7204 4.16423 37.7204 6.4384C37.7204 8.71257 35.867 10.5621 33.5881 10.5621ZM33.5881 3.19835C31.7975 3.19835 30.3414 4.65269 30.3414 6.4384C30.3414 8.22411 31.7975 9.67845 33.5881 9.67845C35.3788 9.67845 36.8349 8.22534 36.8349 6.4384C36.8349 4.65146 35.3788 3.19835 33.5881 3.19835Z" fill="#F5F5F5"/>
</svg>
