<svg width="48" height="48" viewBox="0 0 48 48" fill="none" xmlns="http://www.w3.org/2000/svg">
<path d="M22.9669 24.5179C22.9463 24.7432 22.7824 24.9317 22.5611 24.9833C20.129 25.5591 18.4303 27.702 18.4303 30.1983V35.7196H17.3677V30.1983C17.3677 27.5974 18.907 25.3176 21.2255 24.3132C20.402 23.5856 19.9076 22.5312 19.9076 21.4001C19.9076 19.889 20.7768 18.5768 22.0416 17.9347C22.1508 17.6313 22.2054 17.3132 22.2054 16.9848C22.2054 15.4251 20.9347 14.1571 19.3719 14.1571C17.809 14.1571 16.5383 15.4251 16.5383 16.9848C16.5383 18.0996 17.1995 19.1129 18.2237 19.5665C18.4318 19.6593 18.5572 19.8728 18.5366 20.0996C18.5159 20.3264 18.3521 20.5135 18.1307 20.5665C15.7001 21.1423 14.0029 23.2867 14.0029 25.7815V31.3014H12.9388V25.783C12.9388 23.1836 14.4766 20.9023 16.7936 19.8979C15.9701 19.1718 15.4757 18.1173 15.4757 16.9848C15.4757 14.8404 17.2231 13.0967 19.3719 13.0967C21.5206 13.0967 23.268 14.8404 23.268 16.9848C23.268 17.1777 23.2547 17.3692 23.2267 17.5577C23.6015 17.5032 24 17.5032 24.3748 17.5577C24.3468 17.3692 24.3335 17.1792 24.3335 16.9848C24.3335 14.8404 26.0809 13.0967 28.2297 13.0967C30.377 13.0967 32.1258 14.8404 32.1258 16.9848C32.1258 18.1158 31.6314 19.1703 30.8064 19.8979C33.1234 20.9023 34.6627 23.1821 34.6627 25.783V31.3014H33.6001V25.783C33.6001 23.2881 31.9029 21.1438 29.4723 20.568C29.2509 20.515 29.0871 20.3279 29.0664 20.1011C29.0458 19.8743 29.1712 19.6608 29.3793 19.568C30.402 19.1144 31.0632 18.0996 31.0632 16.9862C31.0632 15.4266 29.794 14.1586 28.2311 14.1586C26.6683 14.1586 25.3976 15.4266 25.3976 16.9862C25.3976 17.3132 25.4522 17.6313 25.5599 17.9362C26.8276 18.5783 27.6998 19.8905 27.6998 21.403C27.6998 22.5341 27.2054 23.5886 26.3805 24.3161C28.696 25.3191 30.2353 27.6004 30.2353 30.2012V35.7196H29.1727V30.1983C29.1727 27.7035 27.477 25.5591 25.0463 24.9833C24.825 24.9317 24.6612 24.7432 24.6405 24.5164C24.6198 24.2911 24.7453 24.0761 24.9534 23.9833C25.9761 23.5297 26.6373 22.515 26.6373 21.4016C26.6373 19.8434 25.3666 18.5768 23.8022 18.5768C22.2408 18.5768 20.9716 19.8434 20.9716 21.4016C20.9716 22.5164 21.6328 23.5297 22.6555 23.9833C22.8621 24.0761 22.9876 24.2911 22.9669 24.5179ZM5.14656 23.9332C5.14656 14.1262 12.7942 6.08642 22.4504 5.39128L20.4743 7.36329L21.2255 8.11292L24.5519 4.79187L21.224 1.47229L20.4728 2.22192L22.5788 4.32501C12.2777 4.95829 4.08398 13.4973 4.08398 23.9332C4.08398 33.1026 10.3207 40.9774 19.2508 43.0819L19.4958 42.0495C11.0468 40.0569 5.14656 32.6077 5.14656 23.9332ZM43.5175 23.9376C43.5175 14.7683 37.2793 6.89349 28.3507 4.78745L28.1057 5.81985C36.5547 7.81101 42.4549 15.2617 42.4549 23.9376C42.4549 33.7462 34.8088 41.7888 25.1526 42.484L27.1287 40.5134L26.376 39.7623L23.0496 43.0834L26.376 46.4044L27.1287 45.6533L25.0227 43.5517C35.3253 42.917 43.5175 34.3765 43.5175 23.9376Z" fill="#F5F5F5"/>
</svg>
