<svg width="46" height="52" viewBox="0 0 46 52" fill="none" xmlns="http://www.w3.org/2000/svg">
<path d="M22.2618 26.9377C22.2385 27.1922 22.0539 27.405 21.8044 27.4633C19.0635 28.1136 17.1492 30.5335 17.1492 33.3526V39.5878H15.9517V33.3526C15.9517 30.4154 17.6864 27.8408 20.2992 26.7065C19.3712 25.8849 18.814 24.6941 18.814 23.4168C18.814 21.7103 19.7936 20.2285 21.2189 19.5033C21.342 19.1607 21.4036 18.8014 21.4036 18.4306C21.4036 16.6693 19.9716 15.2373 18.2103 15.2373C16.449 15.2373 15.017 16.6693 15.017 18.4306C15.017 19.6896 15.7621 20.8338 16.9163 21.3461C17.1508 21.4509 17.2922 21.692 17.2689 21.9482C17.2456 22.2043 17.061 22.4155 16.8115 22.4754C14.0723 23.1257 12.1596 25.5473 12.1596 28.3647V34.5983H10.9605V28.3664C10.9605 25.4309 12.6935 22.8546 15.3047 21.7203C14.3766 20.9004 13.8195 19.7095 13.8195 18.4306C13.8195 16.009 15.7887 14.0398 18.2103 14.0398C20.6318 14.0398 22.601 16.009 22.601 18.4306C22.601 18.6484 22.5861 18.8647 22.5545 19.0775C22.9769 19.016 23.426 19.016 23.8484 19.0775C23.8168 18.8647 23.8018 18.6501 23.8018 18.4306C23.8018 16.009 25.771 14.0398 28.1926 14.0398C30.6125 14.0398 32.5834 16.009 32.5834 18.4306C32.5834 19.7079 32.0262 20.8987 31.0965 21.7203C33.7077 22.8546 35.4424 25.4292 35.4424 28.3664V34.5983H34.2449V28.3664C34.2449 25.5489 32.3323 23.1274 29.593 22.4771C29.3435 22.4172 29.1589 22.206 29.1356 21.9498C29.1124 21.6937 29.2537 21.4525 29.4882 21.3478C30.6408 20.8355 31.3859 19.6896 31.3859 18.4322C31.3859 16.6709 29.9556 15.2389 28.1943 15.2389C26.433 15.2389 25.001 16.6709 25.001 18.4322C25.001 18.8014 25.0625 19.1607 25.1839 19.505C26.6126 20.2301 27.5956 21.712 27.5956 23.4201C27.5956 24.6974 27.0384 25.8882 26.1087 26.7098C28.7182 27.8425 30.4529 30.4187 30.4529 33.3559V39.5878H29.2554V33.3526C29.2554 30.5351 27.3444 28.1136 24.6052 27.4633C24.3557 27.405 24.1711 27.1922 24.1478 26.936C24.1245 26.6816 24.2659 26.4387 24.5004 26.334C25.653 25.8217 26.3981 24.6758 26.3981 23.4184C26.3981 21.6588 24.9661 20.2285 23.2031 20.2285C21.4435 20.2285 20.0131 21.6588 20.0131 23.4184C20.0131 24.6774 20.7582 25.8217 21.9108 26.334C22.1437 26.4387 22.285 26.6816 22.2618 26.9377ZM2.17893 26.2774C2.17893 15.2023 10.7975 6.12308 21.6796 5.33806L19.4527 7.56505L20.2992 8.4116L24.048 4.66115L20.2975 0.912354L19.451 1.75891L21.8243 4.13392C10.2154 4.84909 0.981445 14.4922 0.981445 26.2774C0.981445 36.6323 8.01002 45.5253 18.0739 47.902L18.35 46.7361C8.8283 44.4858 2.17893 36.0735 2.17893 26.2774ZM45.4214 26.2824C45.4214 15.9275 38.3912 7.0345 28.329 4.65616L28.0529 5.82204C37.5746 8.07065 44.224 16.4846 44.224 26.2824C44.224 37.3591 35.6071 46.4417 24.7249 47.2267L26.9519 45.0014L26.1037 44.1532L22.3549 47.9037L26.1037 51.6541L26.9519 50.8059L24.5786 48.4326C36.1892 47.7157 45.4214 38.071 45.4214 26.2824Z" fill="#F5F5F5"/>
</svg>
